<?xml version="1.0" encoding="utf-8"?>
<!-- Generator: Adobe Illustrator 16.0.0, SVG Export Plug-In . SVG Version: 6.00 Build 0)  -->
<!DOCTYPE svg PUBLIC "-//W3C//DTD SVG 1.1//EN" "http://www.w3.org/Graphics/SVG/1.1/DTD/svg11.dtd">
<svg version="1.1" id="_x31_" xmlns="http://www.w3.org/2000/svg" xmlns:xlink="http://www.w3.org/1999/xlink" x="0px" y="0px"
	 width="300px" height="54.562px" viewBox="0 0 300 54.562" enable-background="new 0 0 300 54.562" xml:space="preserve">
<path fill-rule="evenodd" clip-rule="evenodd" fill="#FFFFFF" d="M0,0.471h5.849c1.771,0,3.317,0.151,4.639,0.454
	c1.322,0.302,2.554,0.879,3.698,1.73c1.366,1.031,2.426,2.331,3.177,3.899c0.75,1.569,1.126,3.283,1.126,5.143
	c0,3.922-1.501,6.936-4.504,9.042c-1.21,0.852-2.443,1.423-3.698,1.715c-1.255,0.291-2.756,0.437-4.504,0.437H0V0.471L0,0.471z
	 M4.369,4.235v14.892h1.345c2.286,0,4.113-0.493,5.479-1.479c0.874-0.628,1.558-1.473,2.05-2.538c0.493-1.064,0.74-2.201,0.74-3.412
	c0-1.188-0.242-2.313-0.723-3.378c-0.482-1.064-1.16-1.933-2.034-2.605c-1.322-0.986-3.16-1.479-5.513-1.479H4.369L4.369,4.235z
	 M37.686,0.471v3.765h-8.068v5.009h7.732v3.765h-7.732v6.118h8.068v3.765H25.249V0.471H37.686L37.686,0.471z M44.649,0.471h4.37
	v18.656h6.925v3.765H44.649V0.471L44.649,0.471z M76.957,22.892l-1.983-4.706h-9.042l-1.983,4.706h-4.74L68.923,0h3.294
	l9.446,22.892H76.957L76.957,22.892z M67.31,14.622h6.387l-3.16-8.067L67.31,14.622L67.31,14.622z M99.449,0.471v3.765h-8.067v5.009
	h7.731v3.765h-7.731v6.118h8.067v3.765H87.012V0.471H99.449L99.449,0.471z M105.27,22.892l4.168-22.825h3.025l6.083,14.656
	L124.9,0.067h3.025l3.764,22.825h-4.437l-2.017-13.816l-6.151,14.118h-1.21l-5.882-14.118l-2.286,13.816H105.27L105.27,22.892z
	 M154.721,0.471L143.83,19.127h10.353v3.765h-17.613L147.46,4.235h-9.177V0.471H154.721L154.721,0.471z M165.112,22.892h-4.37
	V-0.034h3.026l13.647,15.597V0.471h4.369v22.858h-3.025L165.112,7.731V22.892L165.112,22.892z M204.883,22.892l-1.983-4.706h-9.042
	l-1.983,4.706h-4.74L196.849,0h3.293l9.446,22.892H204.883L204.883,22.892z M195.235,14.622h6.387l-3.16-8.067L195.235,14.622
	L195.235,14.622z M219.308,0.471V9.95l8.235-9.479h5.513l-9.479,10.353l9.983,12.068h-5.781l-7.966-10.051l-0.504,0.505v9.546h-4.37
	V0.471H219.308L219.308,0.471z M239.043,0.471h4.37v22.421h-4.37V0.471L239.043,0.471z M251.066,22.572
	c-0.504-0.504-0.757-1.126-0.757-1.866c0-0.74,0.253-1.362,0.757-1.866s1.126-0.756,1.865-0.756s1.362,0.252,1.866,0.756
	s0.756,1.125,0.756,1.866c0,0.739-0.252,1.361-0.756,1.866c-0.504,0.504-1.127,0.756-1.866,0.756S251.57,23.076,251.066,22.572
	L251.066,22.572z M262.449,0.471h5.546c2.442,0,4.27,0.47,5.479,1.412c1.39,1.075,2.084,2.621,2.084,4.639
	c0,1.994-0.84,3.462-2.521,4.403c1.142,0.179,2.117,0.65,2.924,1.412c1.075,1.031,1.614,2.431,1.614,4.202
	c0,1.882-0.639,3.395-1.916,4.539c-1.368,1.209-3.261,1.815-5.682,1.815h-7.529V0.471L262.449,0.471z M266.818,4.034v5.748h1.244
	c0.225,0,0.432-0.005,0.622-0.016c0.19-0.012,0.471-0.073,0.841-0.185c0.369-0.112,0.683-0.263,0.941-0.454
	c0.257-0.191,0.486-0.482,0.689-0.874c0.2-0.392,0.302-0.857,0.302-1.395c0-0.964-0.314-1.675-0.941-2.135
	c-0.627-0.459-1.435-0.689-2.42-0.689H266.818L266.818,4.034z M266.818,13.144v6.184h1.883c1.3,0,2.298-0.201,2.992-0.604
	c0.918-0.538,1.377-1.4,1.377-2.588c0-1.21-0.548-2.061-1.646-2.555c-0.628-0.291-1.623-0.436-2.991-0.436H266.818L266.818,13.144z
	 M287.731,22.892V12.64l-7.697-12.169h5.177l4.807,7.799l4.808-7.799H300l-7.899,12.169v10.252H287.731z"/>
<path fill-rule="evenodd" clip-rule="evenodd" fill="#FFFFFF" d="M0,40.559h2.111v5.148l6.205-5.968v9.889H6.205V44.35L0,50.318
	V40.559L0,40.559z M12.388,42.907l-1.357-1.186c0.331-0.373,0.718-0.674,1.164-0.905c0.646-0.33,1.365-0.495,2.154-0.495
	c0.991,0,1.774,0.216,2.349,0.646c0.618,0.474,0.927,1.048,0.927,1.723c0,0.905-0.417,1.544-1.25,1.918
	c0.431,0.072,0.826,0.266,1.185,0.581c0.474,0.445,0.711,0.977,0.711,1.595c0,0.488-0.115,0.948-0.345,1.379
	c-0.229,0.431-0.539,0.775-0.927,1.034c-0.704,0.474-1.594,0.71-2.671,0.71c-1.021,0-1.889-0.251-2.607-0.754
	c-0.474-0.33-0.876-0.796-1.207-1.4l1.681-0.862c0.158,0.374,0.395,0.675,0.711,0.905c0.359,0.259,0.797,0.388,1.314,0.388
	c0.588,0,1.042-0.101,1.357-0.301c0.359-0.244,0.539-0.589,0.539-1.034c0-0.402-0.144-0.697-0.431-0.883
	c-0.244-0.159-0.646-0.237-1.207-0.237h-1.098v-1.724h0.948c0.402,0,0.704-0.072,0.905-0.215c0.244-0.172,0.366-0.417,0.366-0.733
	c0-0.33-0.129-0.589-0.389-0.775c-0.215-0.159-0.538-0.237-0.969-0.237c-0.445,0-0.833,0.094-1.164,0.28
	C12.819,42.455,12.588,42.648,12.388,42.907L12.388,42.907z M20.466,49.628v-9.07h5.559v1.938h-3.447v7.131H20.466L20.466,49.628z
	 M28.449,41.668c0.927-0.898,2.079-1.347,3.458-1.347c1.379,0,2.532,0.449,3.458,1.347c0.927,0.897,1.39,2.043,1.39,3.437
	c0,1.379-0.463,2.524-1.39,3.436c-0.927,0.912-2.079,1.368-3.458,1.368c-1.378,0-2.531-0.456-3.458-1.368
	c-0.926-0.912-1.39-2.057-1.39-3.436C27.059,43.711,27.523,42.565,28.449,41.668L28.449,41.668z M29.946,47.227
	c0.488,0.524,1.142,0.786,1.96,0.786c0.819,0,1.473-0.262,1.961-0.786c0.488-0.524,0.732-1.225,0.732-2.101
	c0-0.962-0.262-1.688-0.787-2.176c-0.524-0.488-1.16-0.732-1.907-0.732c-0.747,0-1.382,0.244-1.907,0.732
	c-0.523,0.488-0.786,1.214-0.786,2.176C29.214,46.002,29.458,46.702,29.946,47.227L29.946,47.227z M45.199,42.497H42.55v7.131
	h-2.112v-7.131h-2.649v-1.938h7.41V42.497L45.199,42.497z M47.624,41.668c0.926-0.898,2.078-1.347,3.458-1.347
	c1.378,0,2.532,0.449,3.458,1.347c0.927,0.897,1.391,2.043,1.391,3.437c0,1.379-0.464,2.524-1.391,3.436
	c-0.926,0.912-2.079,1.368-3.458,1.368c-1.379,0-2.532-0.456-3.458-1.368c-0.927-0.912-1.39-2.057-1.39-3.436
	C46.234,43.711,46.697,42.565,47.624,41.668L47.624,41.668z M49.12,47.227c0.489,0.524,1.142,0.786,1.961,0.786
	c0.818,0,1.472-0.262,1.96-0.786c0.488-0.524,0.732-1.225,0.732-2.101c0-0.962-0.262-1.688-0.786-2.176
	c-0.524-0.488-1.16-0.732-1.907-0.732c-0.747,0-1.383,0.244-1.907,0.732c-0.524,0.488-0.787,1.214-0.787,2.176
	C48.388,46.002,48.632,46.702,49.12,47.227L49.12,47.227z M58.125,40.559h3.555c0.905,0,1.594,0.179,2.068,0.539
	c0.56,0.445,0.84,1.026,0.84,1.745c0,0.819-0.359,1.408-1.077,1.767c0.459,0.086,0.869,0.287,1.229,0.603
	c0.474,0.431,0.711,1.013,0.711,1.745c0,0.876-0.331,1.566-0.992,2.069c-0.545,0.402-1.242,0.603-2.089,0.603h-4.245V40.559
	L58.125,40.559z M60.237,44.092h1.077c0.374,0,0.654-0.065,0.841-0.194c0.272-0.172,0.409-0.417,0.409-0.732
	c0-0.302-0.122-0.539-0.366-0.71c-0.172-0.116-0.48-0.172-0.926-0.172h-1.034V44.092L60.237,44.092z M60.237,47.905h1.572
	c0.474,0,0.84-0.086,1.099-0.258c0.287-0.187,0.431-0.453,0.431-0.797c0-0.374-0.136-0.64-0.41-0.797
	c-0.244-0.158-0.595-0.237-1.055-0.237h-1.637V47.905L60.237,47.905z M75.102,40.559v9.07h-2.111v-7.131H70.32v3.599
	c0,1.12-0.287,1.988-0.862,2.606c-0.732,0.819-1.724,1.128-2.973,0.927v-1.939c0.617,0.144,1.113,0.007,1.486-0.41
	c0.216-0.258,0.323-0.653,0.323-1.184v-5.537H75.102L75.102,40.559z M84.281,46.268l1.766,0.991
	c-0.33,0.632-0.725,1.149-1.184,1.551c-0.834,0.732-1.846,1.099-3.039,1.099c-1.234,0-2.298-0.409-3.188-1.228
	c-0.89-0.819-1.335-1.997-1.335-3.534c0-1.436,0.402-2.6,1.206-3.49c0.805-0.891,1.875-1.336,3.21-1.336
	c1.494,0,2.628,0.553,3.404,1.659c0.56,0.804,0.84,1.903,0.84,3.296V45.6h-6.506c0.028,0.775,0.291,1.372,0.786,1.789
	c0.495,0.416,1.053,0.624,1.669,0.624c0.56,0,1.042-0.165,1.444-0.495C83.756,47.216,84.064,46.798,84.281,46.268L84.281,46.268z
	 M79.605,43.876h4.202c-0.115-0.503-0.362-0.906-0.743-1.207c-0.381-0.302-0.831-0.453-1.347-0.453c-0.517,0-0.963,0.15-1.335,0.453
	C80.007,42.971,79.749,43.374,79.605,43.876L79.605,43.876z M88.244,49.628v-9.07h2.112v3.361h3.749v-3.361h2.111v9.07h-2.111v-3.77
	h-3.749v3.77H88.244L88.244,49.628z M98.888,40.559h2.111v5.148l6.205-5.968v9.889h-2.112V44.35l-6.204,5.968V40.559L98.888,40.559z
	 M116.381,46.268l1.766,0.991c-0.33,0.632-0.725,1.149-1.185,1.551c-0.833,0.732-1.846,1.099-3.037,1.099
	c-1.235,0-2.298-0.409-3.189-1.228c-0.89-0.819-1.335-1.997-1.335-3.534c0-1.436,0.401-2.6,1.206-3.49
	c0.805-0.891,1.875-1.336,3.21-1.336c1.494,0,2.628,0.553,3.404,1.659c0.561,0.804,0.84,1.903,0.84,3.296V45.6h-6.506
	c0.028,0.775,0.29,1.372,0.786,1.789c0.496,0.416,1.052,0.624,1.669,0.624c0.56,0,1.042-0.165,1.444-0.495
	C115.856,47.216,116.166,46.798,116.381,46.268L116.381,46.268z M111.706,43.876h4.201c-0.115-0.503-0.362-0.906-0.743-1.207
	c-0.381-0.302-0.83-0.453-1.347-0.453s-0.962,0.15-1.335,0.453C112.108,42.971,111.85,43.374,111.706,43.876L111.706,43.876z
	 M132.388,40.968v2.779c-0.589-1.02-1.465-1.53-2.628-1.53c-0.732,0-1.368,0.258-1.907,0.775c-0.538,0.517-0.807,1.221-0.807,2.112
	c0,0.818,0.248,1.508,0.743,2.068c0.496,0.56,1.146,0.84,1.951,0.84c0.531,0,1.033-0.136,1.507-0.409
	c0.474-0.273,0.855-0.654,1.142-1.142v2.779c-0.775,0.445-1.608,0.667-2.499,0.667c-1.566,0-2.801-0.459-3.706-1.379
	c-0.861-0.89-1.292-2.025-1.292-3.403c0-1.451,0.488-2.644,1.465-3.576c0.862-0.819,2.018-1.229,3.469-1.229
	C130.815,40.321,131.67,40.537,132.388,40.968L132.388,40.968z M133.746,54.562l3.49-6.614l-4.028-7.39h2.541l2.672,5.105
	l2.542-5.105h2.371l-7.218,14.003H133.746L133.746,54.562z M144.798,40.559h3.555c0.904,0,1.594,0.179,2.068,0.539
	c0.561,0.445,0.841,1.026,0.841,1.745c0,0.819-0.36,1.408-1.078,1.767c0.46,0.086,0.869,0.287,1.229,0.603
	c0.473,0.431,0.71,1.013,0.71,1.745c0,0.876-0.33,1.566-0.991,2.069c-0.546,0.402-1.243,0.603-2.09,0.603h-4.244V40.559
	L144.798,40.559z M146.909,44.092h1.077c0.374,0,0.653-0.065,0.841-0.194c0.272-0.172,0.409-0.417,0.409-0.732
	c0-0.302-0.122-0.539-0.366-0.71c-0.172-0.116-0.481-0.172-0.927-0.172h-1.034V44.092L146.909,44.092z M146.909,47.905h1.572
	c0.475,0,0.841-0.086,1.099-0.258c0.287-0.187,0.432-0.453,0.432-0.797c0-0.374-0.137-0.64-0.41-0.797
	c-0.244-0.158-0.597-0.237-1.056-0.237h-1.637V47.905L146.909,47.905z M160.827,46.268l1.766,0.991
	c-0.33,0.632-0.726,1.149-1.184,1.551c-0.834,0.732-1.846,1.099-3.038,1.099c-1.236,0-2.298-0.409-3.189-1.228
	c-0.89-0.819-1.335-1.997-1.335-3.534c0-1.436,0.402-2.6,1.206-3.49c0.805-0.891,1.875-1.336,3.21-1.336
	c1.494,0,2.628,0.553,3.405,1.659c0.56,0.804,0.84,1.903,0.84,3.296V45.6H156c0.029,0.775,0.291,1.372,0.786,1.789
	c0.495,0.416,1.053,0.624,1.669,0.624c0.56,0,1.042-0.165,1.444-0.495C160.302,47.216,160.61,46.798,160.827,46.268L160.827,46.268z
	 M156.151,43.876h4.201c-0.114-0.503-0.363-0.906-0.743-1.207c-0.381-0.302-0.831-0.453-1.347-0.453s-0.962,0.15-1.335,0.453
	C156.553,42.971,156.294,43.374,156.151,43.876L156.151,43.876z M164.791,49.628v-9.07h2.111v3.361h3.748v-3.361h2.112v9.07h-2.112
	v-3.77h-3.748v3.77H164.791L164.791,49.628z M175.434,40.559h2.111v5.148l6.204-5.968v9.889h-2.111V44.35l-6.204,5.968V40.559
	L175.434,40.559z M188.532,48.573v5.989h-2.111V40.559h2.111v0.991c0.689-0.819,1.587-1.229,2.693-1.229
	c1.235,0,2.28,0.435,3.134,1.303c0.855,0.87,1.283,2.008,1.283,3.416c0,1.451-0.445,2.625-1.336,3.522
	c-0.89,0.898-1.911,1.347-3.059,1.347C190.169,49.908,189.264,49.463,188.532,48.573L188.532,48.573z M190.966,42.217
	c-0.718,0-1.325,0.255-1.82,0.765c-0.496,0.51-0.744,1.231-0.744,2.165c0,0.905,0.248,1.609,0.744,2.112
	c0.495,0.502,1.103,0.753,1.82,0.753c0.747,0,1.354-0.28,1.821-0.84s0.699-1.242,0.699-2.046c0-0.819-0.232-1.508-0.699-2.069
	C192.32,42.497,191.713,42.217,190.966,42.217L190.966,42.217z M198.755,41.668c0.925-0.898,2.078-1.347,3.457-1.347
	c1.379,0,2.532,0.449,3.458,1.347c0.926,0.897,1.39,2.043,1.39,3.437c0,1.379-0.463,2.524-1.39,3.436
	c-0.927,0.912-2.079,1.368-3.458,1.368c-1.378,0-2.532-0.456-3.457-1.368c-0.927-0.912-1.39-2.057-1.39-3.436
	C197.366,43.711,197.829,42.565,198.755,41.668L198.755,41.668z M200.252,47.227c0.488,0.524,1.142,0.786,1.96,0.786
	c0.819,0,1.473-0.262,1.961-0.786c0.488-0.524,0.732-1.225,0.732-2.101c0-0.962-0.263-1.688-0.787-2.176s-1.16-0.732-1.907-0.732
	c-0.747,0-1.382,0.244-1.906,0.732c-0.524,0.488-0.786,1.214-0.786,2.176C199.52,46.002,199.764,46.702,200.252,47.227
	L200.252,47.227z M209.257,40.559h3.555c0.905,0,1.594,0.179,2.068,0.539c0.56,0.445,0.84,1.026,0.84,1.745
	c0,0.819-0.36,1.408-1.078,1.767c0.459,0.086,0.869,0.287,1.228,0.603c0.474,0.431,0.711,1.013,0.711,1.745
	c0,0.876-0.331,1.566-0.992,2.069c-0.545,0.402-1.242,0.603-2.089,0.603h-4.244V40.559L209.257,40.559z M211.369,44.092h1.077
	c0.374,0,0.654-0.065,0.84-0.194c0.273-0.172,0.409-0.417,0.409-0.732c0-0.302-0.122-0.539-0.366-0.71
	c-0.173-0.116-0.481-0.172-0.926-0.172h-1.034V44.092L211.369,44.092z M211.369,47.905h1.572c0.474,0,0.84-0.086,1.099-0.258
	c0.288-0.187,0.432-0.453,0.432-0.797c0-0.374-0.137-0.64-0.41-0.797c-0.244-0.158-0.596-0.237-1.056-0.237h-1.637V47.905
	L211.369,47.905z M223.799,49.628v-9.07h2.111v3.361h3.748v-3.361h2.112v9.07h-2.112v-3.77h-3.748v3.77H223.799L223.799,49.628z
	 M241.078,41.614v-1.056h2.112v9.07h-2.112v-0.948c-0.704,0.818-1.608,1.228-2.714,1.228c-1.336,0-2.403-0.473-3.199-1.422
	c-0.798-0.948-1.196-2.083-1.196-3.404c0-1.436,0.427-2.589,1.282-3.458c0.854-0.868,1.899-1.303,3.134-1.303
	C239.519,40.321,240.417,40.752,241.078,41.614L241.078,41.614z M238.643,42.217c-0.747,0-1.354,0.28-1.82,0.84
	c-0.467,0.561-0.7,1.25-0.7,2.069c0,0.804,0.233,1.486,0.7,2.046s1.073,0.84,1.82,0.84c0.718,0,1.325-0.251,1.82-0.753
	c0.496-0.503,0.743-1.207,0.743-2.112c0-0.934-0.247-1.655-0.743-2.165C239.968,42.472,239.361,42.217,238.643,42.217
	L238.643,42.217z M252.281,42.907l-1.357-1.186c0.33-0.373,0.718-0.674,1.163-0.905c0.646-0.33,1.364-0.495,2.154-0.495
	c0.992,0,1.774,0.216,2.349,0.646c0.617,0.474,0.927,1.048,0.927,1.723c0,0.905-0.416,1.544-1.25,1.918
	c0.431,0.072,0.826,0.266,1.185,0.581c0.475,0.445,0.711,0.977,0.711,1.595c0,0.488-0.114,0.948-0.344,1.379
	c-0.229,0.431-0.539,0.775-0.927,1.034c-0.704,0.474-1.594,0.71-2.671,0.71c-1.021,0-1.89-0.251-2.607-0.754
	c-0.474-0.33-0.876-0.796-1.206-1.4l1.68-0.862c0.158,0.374,0.395,0.675,0.712,0.905c0.358,0.259,0.796,0.388,1.313,0.388
	c0.589,0,1.041-0.101,1.357-0.301c0.359-0.244,0.538-0.589,0.538-1.034c0-0.402-0.143-0.697-0.431-0.883
	c-0.244-0.159-0.646-0.237-1.206-0.237h-1.099v-1.724h0.948c0.401,0,0.703-0.072,0.904-0.215c0.244-0.172,0.366-0.417,0.366-0.733
	c0-0.33-0.129-0.589-0.388-0.775c-0.215-0.159-0.539-0.237-0.97-0.237c-0.445,0-0.833,0.094-1.164,0.28
	C252.711,42.455,252.481,42.648,252.281,42.907L252.281,42.907z M266.996,41.614v-1.056h2.111v9.07h-2.111v-0.948
	c-0.704,0.818-1.608,1.228-2.715,1.228c-1.335,0-2.402-0.473-3.199-1.422c-0.798-0.948-1.196-2.083-1.196-3.404
	c0-1.436,0.428-2.589,1.283-3.458c0.854-0.868,1.898-1.303,3.134-1.303C265.437,40.321,266.334,40.752,266.996,41.614
	L266.996,41.614z M264.561,42.217c-0.747,0-1.354,0.28-1.82,0.84c-0.468,0.561-0.7,1.25-0.7,2.069c0,0.804,0.232,1.486,0.7,2.046
	c0.467,0.56,1.073,0.84,1.82,0.84c0.718,0,1.325-0.251,1.82-0.753c0.496-0.503,0.743-1.207,0.743-2.112
	c0-0.934-0.247-1.655-0.743-2.165C265.886,42.472,265.279,42.217,264.561,42.217L264.561,42.217z M271.778,40.559h2.111v3.231
	l3.017-3.231h2.801l-3.965,3.964l4.18,5.106h-2.671l-3.017-3.727l-0.345,0.345v3.382h-2.111V40.559L271.778,40.559z M287.936,41.614
	v-1.056h2.11v9.07h-2.11v-0.948c-0.704,0.818-1.608,1.228-2.715,1.228c-1.336,0-2.401-0.473-3.199-1.422
	c-0.797-0.948-1.195-2.083-1.195-3.404c0-1.436,0.427-2.589,1.281-3.458c0.855-0.868,1.9-1.303,3.136-1.303
	C286.377,40.321,287.276,40.752,287.936,41.614L287.936,41.614z M285.501,42.217c-0.746,0-1.354,0.28-1.82,0.84
	c-0.466,0.561-0.7,1.25-0.7,2.069c0,0.804,0.234,1.486,0.7,2.046c0.467,0.56,1.074,0.84,1.82,0.84c0.719,0,1.324-0.251,1.821-0.753
	c0.494-0.503,0.742-1.207,0.742-2.112c0-0.934-0.248-1.655-0.742-2.165C286.826,42.472,286.22,42.217,285.501,42.217L285.501,42.217
	z M294.119,42.907l-1.356-1.186c0.331-0.373,0.718-0.674,1.162-0.905c0.647-0.33,1.365-0.495,2.155-0.495
	c0.99,0,1.773,0.216,2.349,0.646c0.617,0.474,0.926,1.048,0.926,1.723c0,0.905-0.417,1.544-1.25,1.918
	c0.432,0.072,0.826,0.266,1.187,0.581c0.473,0.445,0.71,0.977,0.71,1.595c0,0.488-0.114,0.948-0.345,1.379
	c-0.23,0.431-0.538,0.775-0.927,1.034c-0.703,0.474-1.595,0.71-2.671,0.71c-1.021,0-1.889-0.251-2.606-0.754
	c-0.474-0.33-0.876-0.796-1.207-1.4l1.68-0.862c0.159,0.374,0.396,0.675,0.711,0.905c0.36,0.259,0.798,0.388,1.314,0.388
	c0.59,0,1.043-0.101,1.358-0.301c0.358-0.244,0.538-0.589,0.538-1.034c0-0.402-0.145-0.697-0.432-0.883
	c-0.243-0.159-0.646-0.237-1.206-0.237h-1.099v-1.724h0.948c0.402,0,0.703-0.072,0.905-0.215c0.244-0.172,0.365-0.417,0.365-0.733
	c0-0.33-0.129-0.589-0.387-0.775c-0.217-0.159-0.539-0.237-0.97-0.237c-0.446,0-0.833,0.094-1.164,0.28
	C294.549,42.455,294.32,42.648,294.119,42.907z"/>
<rect y="30.421" fill-rule="evenodd" clip-rule="evenodd" fill="#FFFFFF" width="300" height="2.112"/>
</svg>
