<?xml version="1.0" encoding="utf-8"?>
<!-- Generator: Adobe Illustrator 16.0.0, SVG Export Plug-In . SVG Version: 6.00 Build 0)  -->
<!DOCTYPE svg PUBLIC "-//W3C//DTD SVG 1.1//EN" "http://www.w3.org/Graphics/SVG/1.1/DTD/svg11.dtd">
<svg version="1.1" id="Слой_1" xmlns="http://www.w3.org/2000/svg" xmlns:xlink="http://www.w3.org/1999/xlink" x="0px" y="0px"
	 width="282.244px" height="50.147px" viewBox="0 0 282.244 50.147" enable-background="new 0 0 282.244 50.147"
	 xml:space="preserve">
<g>
	<path fill="#FFFFFF" d="M0.163,39.167h2.811v3.867l2.65-3.867h0.16h2.698v7.652H8.321h-2.81v-3.977l-2.617,3.977H2.733h-2.73
		v-7.652H0.163L0.163,39.167z M10.746,41.354l-0.755-1.711c0.236-0.127,0.487-0.234,0.755-0.325c0.268-0.091,0.54-0.166,0.819-0.229
		c0.299-0.075,0.597-0.127,0.892-0.159c0.294-0.031,0.564-0.047,0.811-0.047h0.161c1.017,0,1.801,0.195,2.352,0.586
		c0.552,0.392,0.827,0.913,0.827,1.568c0,0.392-0.102,0.748-0.305,1.07s-0.487,0.563-0.851,0.722v0.031
		c0.438,0.095,0.776,0.259,1.012,0.491c0.235,0.23,0.401,0.475,0.498,0.729c0.043,0.117,0.072,0.229,0.088,0.341
		c0.016,0.109,0.024,0.219,0.024,0.323c0,0.054-0.021,0.196-0.065,0.429c-0.042,0.232-0.16,0.481-0.353,0.744
		c-0.213,0.297-0.567,0.566-1.06,0.809c-0.493,0.243-1.204,0.364-2.136,0.364l-0.16,0.017c-0.311-0.011-0.792-0.06-1.445-0.15
		s-1.365-0.346-2.135-0.769l0.722-1.808h0.161c0.128,0.074,0.251,0.144,0.369,0.207c0.118,0.063,0.23,0.116,0.338,0.157
		c0.246,0.118,0.497,0.206,0.754,0.263c0.257,0.059,0.546,0.091,0.867,0.102c0.278-0.011,0.493-0.054,0.642-0.134
		c0.15-0.079,0.257-0.166,0.321-0.262c0.053-0.063,0.086-0.127,0.096-0.197c0.01-0.069,0.016-0.119,0.016-0.149
		c0-0.224-0.08-0.378-0.241-0.469c-0.16-0.089-0.331-0.145-0.514-0.166c-0.075-0.011-0.145-0.016-0.209-0.016
		c-0.064,0-0.128,0-0.193,0h-1.22v-1.664h1.381c0.054,0,0.118-0.003,0.193-0.007c0.075-0.006,0.156-0.02,0.241-0.041
		c0.128-0.031,0.246-0.093,0.353-0.182c0.107-0.09,0.161-0.229,0.161-0.421c0-0.211-0.07-0.364-0.209-0.459
		s-0.294-0.164-0.466-0.206c-0.064-0.011-0.129-0.018-0.193-0.024c-0.064-0.004-0.123-0.007-0.176-0.007
		c-0.085,0-0.172,0.006-0.257,0.017c-0.085,0.011-0.177,0.024-0.273,0.046c-0.257,0.043-0.514,0.117-0.77,0.222
		c-0.257,0.107-0.493,0.228-0.708,0.365H10.746L10.746,41.354z M18.422,46.819v-7.652h0.16h5.396v1.996h-2.585v5.656h-0.161H18.422
		L18.422,46.819z M29.213,47.105c-1.542-0.011-2.701-0.409-3.478-1.197c-0.776-0.787-1.164-1.76-1.164-2.922
		c0-1.131,0.382-2.098,1.148-2.9c0.766-0.804,1.93-1.204,3.494-1.204h0.16c1.563,0,2.727,0.4,3.493,1.204
		c0.765,0.803,1.148,1.77,1.148,2.9c0,1.13-0.383,2.097-1.148,2.898c-0.766,0.805-1.93,1.204-3.493,1.204L29.213,47.105
		L29.213,47.105z M29.293,45.107c0.438-0.011,0.771-0.126,0.995-0.348c0.225-0.221,0.385-0.464,0.481-0.729
		c0.086-0.233,0.137-0.447,0.153-0.641c0.016-0.197,0.024-0.331,0.024-0.404c0-0.592-0.139-1.087-0.418-1.481
		c-0.277-0.398-0.69-0.605-1.235-0.626c-0.557,0.021-0.972,0.228-1.245,0.626c-0.273,0.395-0.409,0.89-0.409,1.481
		c0,0.073,0.008,0.207,0.024,0.404c0.016,0.193,0.066,0.407,0.151,0.641c0.097,0.254,0.258,0.491,0.482,0.712
		C28.522,44.966,28.854,45.087,29.293,45.107L29.293,45.107z M36.632,46.819v-5.656h-2.023v-1.996h0.161h6.857v1.996h-2.024v5.656
		h-0.161H36.632L36.632,46.819z M46.86,47.105c-1.541-0.011-2.699-0.409-3.476-1.197c-0.776-0.787-1.164-1.76-1.164-2.922
		c0-1.131,0.382-2.098,1.148-2.9c0.766-0.804,1.93-1.204,3.492-1.204h0.161c1.563,0,2.728,0.4,3.493,1.204
		c0.766,0.803,1.148,1.77,1.148,2.9c0,1.13-0.383,2.097-1.148,2.898c-0.766,0.805-1.93,1.204-3.493,1.204L46.86,47.105L46.86,47.105
		z M46.941,45.107c0.438-0.011,0.771-0.126,0.996-0.348c0.224-0.221,0.385-0.464,0.48-0.729c0.087-0.233,0.137-0.447,0.153-0.641
		c0.016-0.197,0.024-0.331,0.024-0.404c0-0.592-0.14-1.087-0.418-1.481c-0.278-0.398-0.69-0.605-1.236-0.626
		c-0.556,0.021-0.971,0.228-1.244,0.626c-0.273,0.395-0.41,0.89-0.41,1.481c0,0.073,0.007,0.207,0.024,0.404
		c0.015,0.193,0.066,0.407,0.152,0.641c0.097,0.254,0.258,0.491,0.482,0.712C46.171,44.966,46.502,45.087,46.941,45.107
		L46.941,45.107z M53.043,46.819v-7.652h0.161h5.074c0.097,0,0.244,0.007,0.442,0.024c0.197,0.017,0.403,0.06,0.618,0.134
		c0.3,0.095,0.57,0.265,0.811,0.507c0.241,0.244,0.361,0.612,0.361,1.109c0,0.105-0.011,0.237-0.032,0.396
		c-0.021,0.158-0.065,0.323-0.129,0.492c-0.085,0.201-0.219,0.394-0.401,0.578c-0.182,0.184-0.438,0.325-0.771,0.421v0.031
		c0.096,0.021,0.2,0.049,0.313,0.078c0.113,0.033,0.227,0.08,0.345,0.143c0.257,0.126,0.49,0.33,0.698,0.611
		c0.209,0.278,0.313,0.674,0.313,1.181c0,0.526-0.131,0.924-0.394,1.188c-0.262,0.266-0.549,0.454-0.859,0.57
		c-0.257,0.095-0.503,0.15-0.739,0.167c-0.235,0.016-0.391,0.022-0.466,0.022H58.23H53.043L53.043,46.819z M55.902,45.156h1.076
		c0.246,0,0.43-0.039,0.554-0.119c0.123-0.078,0.211-0.165,0.265-0.26c0.032-0.075,0.053-0.144,0.064-0.206
		c0.012-0.065,0.017-0.112,0.017-0.144c0-0.223-0.079-0.405-0.233-0.547c-0.156-0.143-0.377-0.214-0.666-0.214h-1.076V45.156
		L55.902,45.156z M55.902,42.162h0.995c0.043,0,0.091-0.003,0.145-0.009c0.054-0.005,0.107-0.013,0.16-0.023
		c0.129-0.021,0.247-0.079,0.353-0.174c0.108-0.095,0.161-0.255,0.161-0.476c0-0.202-0.051-0.347-0.152-0.437
		c-0.102-0.09-0.217-0.151-0.346-0.182c-0.064-0.011-0.123-0.019-0.176-0.023c-0.054-0.006-0.102-0.009-0.145-0.009h-0.995V42.162
		L55.902,42.162z M70.563,39.167v7.652h-0.16h-2.811v-5.751h-1.638v3.201c0,0.147-0.008,0.316-0.024,0.508
		c-0.016,0.188-0.05,0.386-0.104,0.585c-0.119,0.401-0.367,0.771-0.748,1.11c-0.38,0.337-1.019,0.507-1.918,0.507L63,46.994
		c-0.106-0.01-0.23-0.021-0.369-0.031c-0.139-0.011-0.278-0.026-0.417-0.048c-0.085-0.01-0.169-0.023-0.25-0.04
		c-0.08-0.015-0.163-0.028-0.249-0.038c-0.032,0-0.064-0.003-0.096-0.008c-0.032-0.006-0.065-0.01-0.096-0.01v-1.996h0.16
		c0.043,0.011,0.088,0.021,0.137,0.032c0.048,0.011,0.099,0.021,0.152,0.031c0.021,0,0.046,0.003,0.072,0.008
		c0.027,0.006,0.051,0.009,0.073,0.009c0.246-0.021,0.471-0.125,0.674-0.309c0.203-0.185,0.305-0.537,0.305-1.055v-4.373h0.16
		H70.563L70.563,39.167z M80.584,44.491c-0.214,0.623-0.512,1.112-0.892,1.466s-0.773,0.614-1.181,0.784
		c-0.417,0.158-0.818,0.256-1.205,0.294c-0.385,0.035-0.685,0.054-0.898,0.054l-0.161,0.017c-1.167-0.011-2.176-0.359-3.027-1.046
		c-0.851-0.687-1.277-1.712-1.277-3.073c0-1.184,0.373-2.164,1.116-2.94c0.744-0.775,1.796-1.164,3.155-1.164h0.161
		c1.263,0,2.2,0.296,2.81,0.887c0.61,0.592,1.022,1.242,1.236,1.949c0.085,0.296,0.144,0.586,0.177,0.872
		c0.031,0.284,0.048,0.549,0.048,0.792c0,0.042,0,0.082,0,0.118c0,0.038,0,0.072,0,0.103h-5.91v0.08c0,0.063,0.003,0.128,0.008,0.19
		c0.005,0.063,0.013,0.128,0.024,0.19c0.065,0.339,0.22,0.648,0.466,0.935c0.247,0.285,0.61,0.434,1.092,0.444
		c0.364-0.021,0.669-0.111,0.915-0.271c0.247-0.158,0.407-0.384,0.482-0.681h0.161H80.584L80.584,44.491z M74.802,42.1h2.987
		c-0.021-0.382-0.153-0.73-0.394-1.047c-0.24-0.317-0.607-0.486-1.1-0.507c-0.438,0.021-0.792,0.183-1.06,0.482
		C74.969,41.329,74.824,41.687,74.802,42.1L74.802,42.1z M82.03,46.819v-7.652h0.16H85v2.694h2.424v-2.694h0.161h2.81v7.652h-0.16
		h-2.811v-3.057H85v3.057h-0.161H82.03L82.03,46.819z M92.355,39.167h2.81v3.867l2.65-3.867h0.16h2.698v7.652h-0.161h-2.81v-3.977
		l-2.618,3.977h-0.161h-2.73v-7.652H92.355L92.355,39.167z M110.694,44.491c-0.214,0.623-0.511,1.112-0.892,1.466
		c-0.38,0.354-0.773,0.614-1.18,0.784c-0.418,0.158-0.819,0.256-1.204,0.294c-0.385,0.035-0.685,0.054-0.899,0.054l-0.161,0.017
		c-1.166-0.011-2.175-0.359-3.026-1.046c-0.852-0.687-1.277-1.712-1.277-3.073c0-1.184,0.372-2.164,1.116-2.94
		c0.745-0.775,1.796-1.164,3.156-1.164h0.161c1.263,0,2.2,0.296,2.81,0.887c0.611,0.592,1.022,1.242,1.236,1.949
		c0.085,0.296,0.145,0.586,0.177,0.872c0.032,0.284,0.048,0.549,0.048,0.792c0,0.042,0,0.082,0,0.118c0,0.038,0,0.072,0,0.103h-5.91
		v0.08c0,0.063,0.003,0.128,0.008,0.19c0.005,0.063,0.013,0.128,0.024,0.19c0.064,0.339,0.219,0.648,0.465,0.935
		c0.246,0.285,0.61,0.434,1.092,0.444c0.364-0.021,0.669-0.111,0.915-0.271c0.246-0.158,0.407-0.384,0.481-0.681h0.161H110.694
		L110.694,44.491z M104.913,42.1h2.986c-0.021-0.382-0.152-0.73-0.393-1.047c-0.241-0.317-0.608-0.486-1.1-0.507
		c-0.439,0.021-0.792,0.183-1.06,0.482C105.079,41.329,104.934,41.687,104.913,42.1L104.913,42.1z M124.086,44.095v2.426
		c-0.032,0.009-0.109,0.043-0.232,0.102c-0.123,0.058-0.286,0.119-0.49,0.183c-0.224,0.063-0.484,0.126-0.779,0.189
		s-0.613,0.095-0.956,0.095l-0.16,0.017c-1.317-0.011-2.304-0.431-2.962-1.26c-0.659-0.829-0.988-1.782-0.988-2.859
		c0-1.12,0.34-2.084,1.02-2.893s1.657-1.212,2.931-1.212h0.16c0.193,0,0.377,0.01,0.555,0.032c0.176,0.021,0.355,0.047,0.538,0.077
		c0.213,0.054,0.433,0.12,0.659,0.2c0.224,0.079,0.459,0.175,0.705,0.293v2.409h-0.16c-0.257-0.244-0.538-0.434-0.843-0.571
		s-0.613-0.213-0.923-0.224c-0.535,0.021-0.932,0.22-1.188,0.595c-0.256,0.375-0.385,0.812-0.385,1.307
		c0,0.519,0.144,0.952,0.434,1.301c0.288,0.349,0.706,0.533,1.251,0.555c0.214-0.011,0.461-0.066,0.739-0.166
		c0.278-0.101,0.583-0.3,0.915-0.595H124.086L124.086,44.095z M124.552,39.167h3.26l2.055,3.93l1.734-3.93h0.161h2.907l-5.621,10.98
		h-0.161h-3.035l2.361-4.438l-3.822-6.543H124.552L124.552,39.167z M135.392,46.819v-7.652h0.16h5.075
		c0.097,0,0.243,0.007,0.441,0.024c0.198,0.017,0.404,0.06,0.618,0.134c0.3,0.095,0.57,0.265,0.812,0.507
		c0.24,0.244,0.361,0.612,0.361,1.109c0,0.105-0.011,0.237-0.032,0.396c-0.022,0.158-0.064,0.323-0.129,0.492
		c-0.085,0.201-0.22,0.394-0.401,0.578c-0.182,0.184-0.438,0.325-0.771,0.421v0.031c0.098,0.021,0.201,0.049,0.313,0.078
		c0.112,0.033,0.228,0.08,0.345,0.143c0.258,0.126,0.49,0.33,0.699,0.611c0.209,0.278,0.313,0.674,0.313,1.181
		c0,0.526-0.132,0.924-0.394,1.188c-0.263,0.266-0.549,0.454-0.859,0.57c-0.257,0.095-0.503,0.15-0.738,0.167
		c-0.236,0.016-0.391,0.022-0.467,0.022h-0.16H135.392L135.392,46.819z M138.25,45.156h1.076c0.246,0,0.431-0.039,0.554-0.119
		c0.124-0.078,0.211-0.165,0.265-0.26c0.033-0.075,0.054-0.144,0.064-0.206c0.011-0.065,0.017-0.112,0.017-0.144
		c0-0.223-0.078-0.405-0.233-0.547c-0.156-0.143-0.377-0.214-0.667-0.214h-1.076V45.156L138.25,45.156z M138.25,42.162h0.995
		c0.044,0,0.092-0.003,0.145-0.009c0.054-0.005,0.108-0.013,0.16-0.023c0.129-0.021,0.247-0.079,0.354-0.174
		c0.106-0.095,0.16-0.255,0.16-0.476c0-0.202-0.05-0.347-0.152-0.437c-0.102-0.09-0.217-0.151-0.345-0.182
		c-0.064-0.011-0.123-0.019-0.177-0.023c-0.053-0.006-0.101-0.009-0.145-0.009h-0.995V42.162L138.25,42.162z M152.767,44.491
		c-0.214,0.623-0.511,1.112-0.891,1.466s-0.773,0.614-1.181,0.784c-0.418,0.158-0.819,0.256-1.204,0.294
		c-0.386,0.035-0.685,0.054-0.9,0.054l-0.16,0.017c-1.167-0.011-2.175-0.359-3.026-1.046c-0.851-0.687-1.276-1.712-1.276-3.073
		c0-1.184,0.372-2.164,1.115-2.94c0.744-0.775,1.797-1.164,3.156-1.164h0.16c1.263,0,2.199,0.296,2.81,0.887
		c0.611,0.592,1.022,1.242,1.237,1.949c0.085,0.296,0.145,0.586,0.177,0.872c0.032,0.284,0.048,0.549,0.048,0.792
		c0,0.042,0,0.082,0,0.118c0,0.038,0,0.072,0,0.103h-5.909v0.08c0,0.063,0.002,0.128,0.008,0.19c0.005,0.063,0.013,0.128,0.024,0.19
		c0.064,0.339,0.219,0.648,0.466,0.935c0.245,0.285,0.61,0.434,1.092,0.444c0.363-0.021,0.668-0.111,0.915-0.271
		c0.246-0.158,0.406-0.384,0.481-0.681h0.161H152.767L152.767,44.491z M146.986,42.1h2.985c-0.02-0.382-0.15-0.73-0.392-1.047
		c-0.241-0.317-0.609-0.486-1.101-0.507c-0.438,0.021-0.793,0.183-1.06,0.482C147.151,41.329,147.008,41.687,146.986,42.1
		L146.986,42.1z M154.213,46.819v-7.652h0.16h2.81v2.694h2.426v-2.694h0.16h2.81v7.652h-0.16h-2.81v-3.057h-2.426v3.057h-0.16
		H154.213L154.213,46.819z M164.537,39.167h2.812v3.867l2.65-3.867h0.16h2.696v7.652h-0.16h-2.81v-3.977l-2.618,3.977h-0.16h-2.73
		v-7.652H164.537L164.537,39.167z M177.514,39.167v0.745c0.331-0.359,0.685-0.621,1.06-0.784c0.374-0.164,0.819-0.246,1.332-0.246
		h0.162c1.113,0,1.993,0.386,2.641,1.156c0.647,0.771,0.972,1.754,0.972,2.948c0,1.088-0.316,2.043-0.947,2.867
		c-0.632,0.825-1.52,1.235-2.665,1.235l-0.162,0.017c-0.429-0.011-0.828-0.083-1.204-0.214c-0.375-0.132-0.733-0.362-1.075-0.689
		v3.945h-0.161h-2.811v-10.98h0.16H177.514L177.514,39.167z M179.007,44.823c0.461-0.021,0.844-0.192,1.148-0.515
		c0.306-0.321,0.458-0.763,0.458-1.322c0-0.55-0.151-0.988-0.45-1.316c-0.301-0.327-0.687-0.495-1.156-0.507
		c-0.461,0.021-0.806,0.15-1.036,0.388c-0.23,0.238-0.389,0.5-0.475,0.784c-0.031,0.118-0.055,0.23-0.071,0.343
		c-0.017,0.109-0.024,0.213-0.024,0.309c0,0.094,0.008,0.198,0.024,0.308c0.017,0.112,0.04,0.22,0.071,0.325
		c0.077,0.296,0.23,0.566,0.467,0.809C178.198,44.67,178.546,44.803,179.007,44.823L179.007,44.823z M189.284,47.105
		c-1.543-0.011-2.7-0.409-3.477-1.197c-0.776-0.787-1.164-1.76-1.164-2.922c0-1.131,0.383-2.098,1.148-2.9
		c0.765-0.804,1.928-1.204,3.492-1.204h0.16c1.563,0,2.727,0.4,3.492,1.204c0.765,0.803,1.147,1.77,1.147,2.9
		c0,1.13-0.383,2.097-1.147,2.898c-0.766,0.805-1.93,1.204-3.492,1.204L189.284,47.105L189.284,47.105z M189.364,45.107
		c0.438-0.011,0.771-0.126,0.994-0.348c0.227-0.221,0.387-0.464,0.482-0.729c0.086-0.233,0.137-0.447,0.152-0.641
		c0.018-0.197,0.025-0.331,0.025-0.404c0-0.592-0.139-1.087-0.418-1.481c-0.277-0.398-0.689-0.605-1.236-0.626
		c-0.557,0.021-0.971,0.228-1.244,0.626c-0.273,0.395-0.41,0.89-0.41,1.481c0,0.073,0.008,0.207,0.023,0.404
		c0.018,0.193,0.068,0.407,0.152,0.641c0.096,0.254,0.258,0.491,0.482,0.712C188.593,44.966,188.925,45.087,189.364,45.107
		L189.364,45.107z M195.466,46.819v-7.652h0.16h5.074c0.098,0,0.244,0.007,0.442,0.024c0.198,0.017,0.404,0.06,0.617,0.134
		c0.301,0.095,0.571,0.265,0.812,0.507c0.241,0.244,0.362,0.612,0.362,1.109c0,0.105-0.011,0.237-0.032,0.396
		c-0.023,0.158-0.065,0.323-0.13,0.492c-0.085,0.201-0.218,0.394-0.401,0.578c-0.182,0.184-0.438,0.325-0.771,0.421v0.031
		c0.097,0.021,0.2,0.049,0.313,0.078c0.112,0.033,0.227,0.08,0.345,0.143c0.258,0.126,0.491,0.33,0.698,0.611
		c0.209,0.278,0.314,0.674,0.314,1.181c0,0.526-0.131,0.924-0.394,1.188c-0.263,0.266-0.549,0.454-0.859,0.57
		c-0.258,0.095-0.503,0.15-0.739,0.167c-0.235,0.016-0.391,0.022-0.466,0.022h-0.16H195.466L195.466,46.819z M198.325,45.156h1.075
		c0.245,0,0.43-0.039,0.554-0.119c0.123-0.078,0.21-0.165,0.266-0.26c0.032-0.075,0.053-0.144,0.063-0.206
		c0.011-0.065,0.016-0.112,0.016-0.144c0-0.223-0.078-0.405-0.232-0.547c-0.155-0.143-0.378-0.214-0.666-0.214h-1.075V45.156
		L198.325,45.156z M198.325,42.162h0.994c0.043,0,0.092-0.003,0.145-0.009c0.054-0.005,0.107-0.013,0.16-0.023
		c0.13-0.021,0.248-0.079,0.354-0.174s0.16-0.255,0.16-0.476c0-0.202-0.051-0.347-0.152-0.437c-0.103-0.09-0.217-0.151-0.345-0.182
		c-0.064-0.011-0.124-0.019-0.178-0.023c-0.053-0.006-0.102-0.009-0.145-0.009h-0.994V42.162L198.325,42.162z M210.416,46.819
		v-7.652h0.16h2.812v2.694h2.424v-2.694h0.16h2.811v7.652h-0.16h-2.811v-3.057h-2.424v3.057h-0.162H210.416L210.416,46.819z
		 M226.314,39.912v-0.745h0.16h2.699v7.652h-0.162h-2.697v-0.711c-0.279,0.295-0.616,0.532-1.013,0.711
		c-0.396,0.181-0.852,0.27-1.365,0.27l-0.16,0.017c-1.167-0.011-2.062-0.427-2.682-1.252c-0.621-0.824-0.931-1.779-0.931-2.867
		c0-0.127,0.004-0.26,0.015-0.396s0.028-0.275,0.049-0.412c0.118-0.824,0.458-1.58,1.02-2.266c0.563-0.687,1.405-1.03,2.529-1.03
		h0.16c0.439,0,0.854,0.068,1.245,0.206S225.95,39.499,226.314,39.912L226.314,39.912z M224.821,44.823
		c0.47-0.021,0.855-0.192,1.154-0.515c0.301-0.321,0.45-0.763,0.45-1.322c0-0.55-0.149-0.988-0.45-1.316
		c-0.299-0.327-0.685-0.495-1.154-0.507c-0.514,0.021-0.9,0.201-1.156,0.538c-0.258,0.34-0.403,0.709-0.434,1.11
		c0,0.031,0,0.06,0,0.087c0,0.026,0,0.056,0,0.088c0,0.464,0.128,0.881,0.385,1.251C223.872,44.606,224.275,44.803,224.821,44.823
		L224.821,44.823z M237.234,41.354l-0.755-1.711c0.234-0.127,0.486-0.234,0.755-0.325c0.267-0.091,0.54-0.166,0.819-0.229
		c0.299-0.075,0.597-0.127,0.891-0.159c0.295-0.031,0.564-0.047,0.81-0.047h0.162c1.016,0,1.802,0.195,2.353,0.586
		c0.551,0.392,0.827,0.913,0.827,1.568c0,0.392-0.103,0.748-0.306,1.07s-0.486,0.563-0.852,0.722v0.031
		c0.439,0.095,0.777,0.259,1.012,0.491c0.236,0.23,0.401,0.475,0.499,0.729c0.043,0.117,0.071,0.229,0.089,0.341
		c0.015,0.109,0.022,0.219,0.022,0.323c0,0.054-0.021,0.196-0.064,0.429c-0.042,0.232-0.16,0.481-0.352,0.744
		c-0.216,0.297-0.568,0.566-1.061,0.809c-0.493,0.243-1.205,0.364-2.136,0.364l-0.16,0.017c-0.312-0.011-0.793-0.06-1.446-0.15
		s-1.365-0.346-2.136-0.769l0.723-1.808h0.16c0.129,0.074,0.252,0.144,0.37,0.207c0.117,0.063,0.229,0.116,0.337,0.157
		c0.247,0.118,0.497,0.206,0.755,0.263c0.256,0.059,0.546,0.091,0.868,0.102c0.277-0.011,0.491-0.054,0.641-0.134
		c0.151-0.079,0.258-0.166,0.322-0.262c0.053-0.063,0.085-0.127,0.096-0.197c0.011-0.069,0.017-0.119,0.017-0.149
		c0-0.224-0.081-0.378-0.241-0.469c-0.16-0.089-0.332-0.145-0.514-0.166c-0.075-0.011-0.146-0.016-0.209-0.016
		c-0.064,0-0.128,0-0.192,0h-1.221v-1.664h1.381c0.054,0,0.117-0.003,0.192-0.007c0.074-0.006,0.155-0.02,0.241-0.041
		c0.128-0.031,0.247-0.093,0.354-0.182c0.106-0.09,0.16-0.229,0.16-0.421c0-0.211-0.07-0.364-0.209-0.459s-0.294-0.164-0.465-0.206
		c-0.064-0.011-0.129-0.018-0.192-0.024c-0.065-0.004-0.124-0.007-0.177-0.007c-0.086,0-0.173,0.006-0.258,0.017
		c-0.086,0.011-0.176,0.024-0.271,0.046c-0.258,0.043-0.515,0.117-0.772,0.222c-0.256,0.107-0.491,0.228-0.706,0.365H237.234
		L237.234,41.354z M250.642,39.912v-0.745h0.162h2.697v7.652h-0.16h-2.699v-0.711c-0.277,0.295-0.614,0.532-1.011,0.711
		c-0.397,0.181-0.852,0.27-1.365,0.27l-0.16,0.017c-1.167-0.011-2.062-0.427-2.683-1.252c-0.62-0.824-0.931-1.779-0.931-2.867
		c0-0.127,0.005-0.26,0.016-0.396s0.027-0.275,0.049-0.412c0.117-0.824,0.458-1.58,1.02-2.266c0.563-0.687,1.404-1.03,2.529-1.03
		h0.16c0.438,0,0.854,0.068,1.244,0.206S250.279,39.499,250.642,39.912L250.642,39.912z M249.148,44.823
		c0.472-0.021,0.857-0.192,1.156-0.515c0.301-0.321,0.45-0.763,0.45-1.322c0-0.55-0.149-0.988-0.45-1.316
		c-0.299-0.327-0.685-0.495-1.156-0.507c-0.514,0.021-0.898,0.201-1.155,0.538c-0.258,0.34-0.402,0.709-0.435,1.11
		c0,0.031,0,0.06,0,0.087c0,0.026,0,0.056,0,0.088c0,0.464,0.13,0.881,0.386,1.251C248.201,44.606,248.604,44.803,249.148,44.823
		L249.148,44.823z M255.299,46.819v-7.652h0.16h2.811v2.915l2.185-2.915h0.16h3.437l-3.195,3.598l3.484,4.055h-0.16h-3.549
		l-2.361-3.169v3.169h-0.16H255.299L255.299,46.819z M270.795,39.912v-0.745h0.16h2.699v7.652h-0.162h-2.697v-0.711
		c-0.277,0.295-0.616,0.532-1.011,0.711c-0.396,0.181-0.852,0.27-1.365,0.27l-0.16,0.017c-1.167-0.011-2.062-0.427-2.683-1.252
		c-0.62-0.824-0.932-1.779-0.932-2.867c0-0.127,0.006-0.26,0.017-0.396s0.026-0.275,0.048-0.412c0.118-0.824,0.459-1.58,1.021-2.266
		c0.562-0.687,1.404-1.03,2.529-1.03h0.16c0.439,0,0.854,0.068,1.244,0.206S270.431,39.499,270.795,39.912L270.795,39.912z
		 M269.302,44.823c0.472-0.021,0.857-0.192,1.156-0.515c0.301-0.321,0.45-0.763,0.45-1.322c0-0.55-0.149-0.988-0.45-1.316
		c-0.299-0.327-0.685-0.495-1.156-0.507c-0.514,0.021-0.898,0.201-1.156,0.538c-0.256,0.34-0.401,0.709-0.434,1.11
		c0,0.031,0,0.06,0,0.087c0,0.026,0,0.056,0,0.088c0,0.464,0.129,0.881,0.387,1.251C268.354,44.606,268.756,44.803,269.302,44.823
		L269.302,44.823z M275.918,41.354l-0.755-1.711c0.236-0.127,0.486-0.234,0.755-0.325c0.267-0.091,0.54-0.166,0.819-0.229
		c0.299-0.075,0.597-0.127,0.891-0.159c0.295-0.031,0.564-0.047,0.812-0.047h0.16c1.018,0,1.802,0.195,2.353,0.586
		c0.551,0.392,0.827,0.913,0.827,1.568c0,0.392-0.101,0.748-0.306,1.07c-0.203,0.322-0.486,0.563-0.851,0.722v0.031
		c0.438,0.095,0.776,0.259,1.011,0.491c0.236,0.23,0.401,0.475,0.499,0.729c0.043,0.117,0.072,0.229,0.089,0.341
		c0.015,0.109,0.022,0.219,0.022,0.323c0,0.054-0.021,0.196-0.063,0.429c-0.043,0.232-0.161,0.481-0.353,0.744
		c-0.216,0.297-0.567,0.566-1.061,0.809c-0.493,0.243-1.204,0.364-2.136,0.364l-0.16,0.017c-0.312-0.011-0.793-0.06-1.446-0.15
		c-0.652-0.091-1.365-0.346-2.136-0.769l0.724-1.808h0.16c0.128,0.074,0.251,0.144,0.369,0.207c0.117,0.063,0.23,0.116,0.337,0.157
		c0.247,0.118,0.499,0.206,0.755,0.263c0.257,0.059,0.546,0.091,0.868,0.102c0.277-0.011,0.491-0.054,0.643-0.134
		c0.149-0.079,0.256-0.166,0.32-0.262c0.053-0.063,0.085-0.127,0.096-0.197c0.011-0.069,0.017-0.119,0.017-0.149
		c0-0.224-0.081-0.378-0.241-0.469c-0.16-0.089-0.332-0.145-0.514-0.166c-0.075-0.011-0.145-0.016-0.209-0.016s-0.128,0-0.192,0
		h-1.221v-1.664h1.381c0.054,0,0.117-0.003,0.192-0.007c0.075-0.006,0.155-0.02,0.241-0.041c0.13-0.031,0.247-0.093,0.354-0.182
		c0.107-0.09,0.16-0.229,0.16-0.421c0-0.211-0.07-0.364-0.209-0.459s-0.294-0.164-0.465-0.206c-0.064-0.011-0.128-0.018-0.192-0.024
		c-0.064-0.004-0.124-0.007-0.177-0.007c-0.086,0-0.173,0.006-0.258,0.017c-0.086,0.011-0.176,0.024-0.271,0.046
		c-0.258,0.043-0.515,0.117-0.772,0.222c-0.256,0.107-0.491,0.228-0.706,0.365H275.918L275.918,41.354z"/>
	<path fill="#FFFFFF" d="M0,22.652V0h0.324h8.284c3.193,0,5.593,0.609,7.201,1.828c1.606,1.219,2.733,2.562,3.381,4.029
		C19.708,7,20.016,8.084,20.112,9.109c0.097,1.024,0.146,1.764,0.146,2.217c0,2.912-0.896,5.528-2.687,7.847
		c-1.79,2.319-4.778,3.479-8.963,3.479H8.285H0L0,22.652z M6.667,17.216h0.387c0.346,0,0.756-0.022,1.23-0.065
		C8.759,17.107,9.245,17,9.741,16.828c0.928-0.281,1.769-0.831,2.524-1.65c0.755-0.82,1.133-2.104,1.133-3.851
		c0-2.136-0.599-3.651-1.796-4.547c-1.197-0.896-2.712-1.343-4.547-1.343H6.667V17.216L6.667,17.216z M23.332,22.652V0h0.324h13.591
		v5.436h-7.249v3.171h6.569v4.984h-6.569v3.625h7.249v5.437h-0.324H23.332L23.332,22.652z M40.645,22.652V0h0.323h6.343v17.216
		h6.795v5.437h-0.324H40.645L40.645,22.652z M54.333,22.652L62.39,0h0.324h7.702l8.025,22.652h-0.323h-6.795l-1.23-3.917h-7.377
		l-1.262,3.917h-0.323H54.333L54.333,22.652z M66.403,5.76l-2.427,7.993h4.854L66.403,5.76L66.403,5.76z M80.253,22.652V0h0.324
		h13.591v5.436h-7.249v3.171h6.569v4.984h-6.569v3.625h7.249v5.437h-0.323H80.253L80.253,22.652z M95.98,22.652L99.281,0h0.324
		h6.342l3.818,13.267L113.584,0h0.323h6.343l3.3,22.652h-0.323h-6.084l-1.585-12.362l-3.592,12.362h-0.324h-4.078l-3.592-12.362
		l-1.586,12.362h-0.323H95.98L95.98,22.652z M123.777,22.652l10.42-17.216h-8.608V0h0.324h18.347l-10.192,17.216h9.287v5.437h-0.324
		H123.777L123.777,22.652z M146.073,22.652V0h0.323h6.667l7.96,12.847V0h0.325h6.115v22.652h-0.323h-6.57l-8.058-13.074v13.074
		h-0.323H146.073L146.073,22.652z M169.274,22.652L177.334,0h0.323h7.701l8.025,22.652h-0.323h-6.796l-1.229-3.917h-7.378
		l-1.263,3.917h-0.323H169.274L169.274,22.652z M181.346,5.76l-2.427,7.993h4.854L181.346,5.76L181.346,5.76z M195.196,22.652V0
		h0.323h6.343v9.061L208.367,0h0.323h7.443l-8.608,10.97l8.834,11.683h-0.323h-7.928l-6.246-9.255v9.255h-0.323H195.196
		L195.196,22.652z M218.172,22.652V0h0.323h6.343v22.652h-0.323H218.172L218.172,22.652z M228.916,19.934
		c0-0.928,0.329-1.709,0.987-2.346c0.657-0.636,1.429-0.954,2.313-0.954h0.324c0.885,0,1.654,0.318,2.313,0.954
		c0.659,0.637,0.986,1.418,0.986,2.346s-0.327,1.704-0.986,2.33c-0.658,0.626-1.428,0.938-2.313,0.938l-0.324,0.032
		c-0.885-0.021-1.656-0.345-2.313-0.971C229.245,21.638,228.916,20.861,228.916,19.934L228.916,19.934z M240.241,0h10.97
		c2.049,0,3.549,0.367,4.499,1.101c0.949,0.733,1.574,1.542,1.876,2.427c0.151,0.41,0.254,0.803,0.307,1.181
		c0.056,0.377,0.083,0.728,0.083,1.052c0,1.165-0.352,2.157-1.053,2.977c-0.702,0.82-1.525,1.402-2.477,1.748v0.064
		c0.26,0.064,0.572,0.162,0.938,0.292c0.368,0.129,0.745,0.312,1.134,0.55c0.668,0.41,1.289,1.003,1.861,1.78
		c0.57,0.776,0.857,1.833,0.857,3.171c0,0.13-0.007,0.253-0.018,0.372c-0.011,0.118-0.015,0.243-0.015,0.373
		c-0.151,1.38-0.8,2.653-1.942,3.818c-1.144,1.166-2.956,1.748-5.437,1.748h-0.323h-11.585V0H240.241L240.241,0z M246.584,18.121
		h2.589c0.173,0,0.398-0.004,0.679-0.016c0.281-0.011,0.562-0.048,0.843-0.114c0.475-0.107,0.906-0.328,1.293-0.663
		c0.39-0.334,0.583-0.869,0.583-1.602c0-0.712-0.2-1.224-0.6-1.537c-0.398-0.313-0.823-0.523-1.276-0.631
		c-0.26-0.043-0.513-0.071-0.762-0.082c-0.247-0.011-0.457-0.016-0.632-0.016h-2.717V18.121L246.584,18.121z M246.584,8.931h2.33
		c0.927,0,1.597-0.146,2.006-0.436c0.41-0.292,0.681-0.62,0.809-0.987c0.044-0.13,0.071-0.254,0.082-0.373
		c0.01-0.119,0.016-0.232,0.016-0.34c0-0.582-0.211-1.105-0.632-1.569c-0.42-0.463-1.181-0.696-2.28-0.696h-2.33V8.931
		L246.584,8.931z M267.748,22.652V13.85L259.916,0h0.323h7.477l3.688,7.637L274.995,0h0.325h6.924l-7.83,13.85v8.802h-0.325H267.748
		L267.748,22.652z"/>
	<polygon fill-rule="evenodd" clip-rule="evenodd" fill="#FFFFFF" points="0,30.864 282.244,30.864 282.244,32.892 0,32.892 
		0,30.864 	"/>
</g>
</svg>
